<?xml version="1.0" encoding="UTF-8"?>
<svg xmlns="http://www.w3.org/2000/svg" width="665" height="575" viewBox="0 0 665 575" fill="none">
  <path d="M350.541 353.502C385.635 353.502 414.085 325.052 414.085 289.958C414.085 254.864 385.635 226.414 350.541 226.414C315.447 226.414 286.997 254.864 286.997 289.958C286.997 325.052 315.447 353.502 350.541 353.502Z" stroke="#D9DDE3" stroke-width="1.5" stroke-linecap="round" stroke-linejoin="round" stroke-dasharray="2 8"></path>
  <path d="M350.541 396.635C409.457 396.635 457.218 348.874 457.218 289.958C457.218 231.042 409.457 183.281 350.541 183.281C291.625 183.281 243.864 231.042 243.864 289.958C243.864 348.874 291.625 396.635 350.541 396.635Z" stroke="#D9DDE3" stroke-miterlimit="10"></path>
  <path d="M350.541 439.314C433.028 439.314 499.896 372.445 499.896 289.959C499.896 207.473 433.028 140.604 350.541 140.604C268.055 140.604 201.186 207.473 201.186 289.959C201.186 372.445 268.055 439.314 350.541 439.314Z" stroke="#D9DDE3" stroke-width="1.5" stroke-linecap="round" stroke-linejoin="round" stroke-dasharray="2 8"></path>
  <path d="M350.541 482.473C456.863 482.473 543.054 396.282 543.054 289.96C543.054 183.638 456.863 97.447 350.541 97.447C244.219 97.447 158.028 183.638 158.028 289.96C158.028 396.282 244.219 482.473 350.541 482.473Z" stroke="#D9DDE3" stroke-miterlimit="10"></path>
  <path d="M350.541 530.041C483.135 530.041 590.623 422.553 590.623 289.959C590.623 157.365 483.135 49.877 350.541 49.877C217.947 49.877 110.459 157.365 110.459 289.959C110.459 422.553 217.947 530.041 350.541 530.041Z" stroke="#D9DDE3" stroke-width="1.5" stroke-linecap="round" stroke-linejoin="round" stroke-dasharray="2 8"></path>
  <path d="M350.541 573.918C507.367 573.918 634.5 446.785 634.5 289.959C634.5 133.133 507.367 6 350.541 6C193.715 6 66.582 133.133 66.582 289.959C66.582 446.785 193.715 573.918 350.541 573.918Z" stroke="#D9DDE3" stroke-miterlimit="10"></path>
  <g filter="url(#filter0_d_6421_44379)">
    <path d="M271 331.502H22C18.6863 331.502 16 334.188 16 337.502V420.502C16 423.816 18.6863 426.502 22 426.502H271C274.314 426.502 277 423.816 277 420.502V337.502C277 334.188 274.314 331.502 271 331.502Z" fill="white"></path>
    <path d="M271 332.002H22C18.9624 332.002 16.5 334.464 16.5 337.502V420.502C16.5 423.54 18.9624 426.002 22 426.002H271C274.038 426.002 276.5 423.54 276.5 420.502V337.502C276.5 334.464 274.038 332.002 271 332.002Z" stroke="#ECEEF0"></path>
  </g>
  <path d="M51.8631 382.769V386.141C51.8639 387.214 51.4396 388.243 50.6831 389.003C49.9267 389.764 48.8997 390.193 47.8271 390.198V398.505C47.8011 398.636 47.7305 398.754 47.6273 398.839C47.5241 398.924 47.3947 398.97 47.2611 398.97C47.1275 398.97 46.9981 398.924 46.8949 398.839C46.7917 398.754 46.721 398.636 46.6951 398.505V390.192C45.6247 390.185 44.6006 389.755 43.8455 388.996C43.0904 388.238 42.6654 387.211 42.6631 386.141V382.769C42.6638 381.697 43.0879 380.669 43.843 379.908C44.5981 379.147 45.6231 378.715 46.6951 378.706V371.901C46.6894 371.822 46.7 371.743 46.7263 371.668C46.7527 371.593 46.7941 371.524 46.8481 371.466C46.9021 371.408 46.9675 371.362 47.0402 371.33C47.1129 371.299 47.1913 371.282 47.2706 371.282C47.3499 371.282 47.4283 371.299 47.501 371.33C47.5737 371.362 47.639 371.408 47.693 371.466C47.747 371.524 47.7885 371.593 47.8148 371.668C47.8412 371.743 47.8518 371.822 47.8461 371.901V378.706C48.9159 378.717 49.938 379.151 50.6902 379.911C51.4424 380.672 51.8639 381.699 51.8631 382.769Z" fill="#37599F"></path>
  <path d="M75.9972 379.085V393.974C75.998 395.046 75.5743 396.075 74.8187 396.835C74.0631 397.595 73.0371 398.025 71.9652 398.031V404.431C71.9709 404.51 71.9603 404.59 71.934 404.664C71.9076 404.739 71.8662 404.808 71.8122 404.866C71.7582 404.924 71.6928 404.97 71.6201 405.002C71.5474 405.033 71.469 405.05 71.3897 405.05C71.3104 405.05 71.232 405.033 71.1593 405.002C71.0867 404.97 71.0213 404.924 70.9673 404.866C70.9133 404.808 70.8718 404.739 70.8455 404.664C70.8192 404.59 70.8085 404.51 70.8142 404.431V398.015C69.7428 398.008 68.7178 397.577 67.9625 396.817C67.2072 396.057 66.783 395.03 66.7822 393.958V379.085C66.783 378.014 67.2072 376.986 67.9625 376.226C68.7178 375.466 69.7428 375.036 70.8142 375.028V369.991C70.8085 369.912 70.8192 369.833 70.8455 369.758C70.8718 369.683 70.9133 369.615 70.9673 369.557C71.0213 369.498 71.0867 369.452 71.1593 369.421C71.232 369.389 71.3104 369.373 71.3897 369.373C71.469 369.373 71.5474 369.389 71.6201 369.421C71.6928 369.452 71.7582 369.498 71.8122 369.557C71.8662 369.615 71.9076 369.683 71.934 369.758C71.9603 369.833 71.9709 369.912 71.9652 369.991V375.025C73.0376 375.031 74.064 375.461 74.8197 376.222C75.5754 376.983 75.9988 378.013 75.9972 379.085Z" fill="#DB3737"></path>
  <path d="M87.5822 362.698V383.306C87.5822 384.378 87.1583 385.407 86.403 386.167C85.6476 386.928 84.6221 387.359 83.5502 387.366V395.179C83.5559 395.258 83.5453 395.338 83.5189 395.412C83.4926 395.487 83.4511 395.556 83.3971 395.614C83.3431 395.672 83.2778 395.718 83.2051 395.75C83.1324 395.781 83.054 395.798 82.9747 395.798C82.8954 395.798 82.817 395.781 82.7443 395.75C82.6716 395.718 82.6062 395.672 82.5522 395.614C82.4982 395.556 82.4568 395.487 82.4305 395.412C82.4041 395.338 82.3935 395.258 82.3992 395.179V387.379C81.3273 387.372 80.3018 386.941 79.5464 386.18C78.7911 385.42 78.3672 384.391 78.3672 383.319V362.698C78.3672 361.627 78.7912 360.598 79.5466 359.838C80.302 359.078 81.3275 358.648 82.3992 358.641V348.21C82.4097 348.065 82.4749 347.929 82.5817 347.829C82.6884 347.73 82.8289 347.675 82.9747 347.675C83.1205 347.675 83.2609 347.73 83.3677 347.829C83.4745 347.929 83.5397 348.065 83.5502 348.21V358.641C84.6218 358.648 85.6473 359.078 86.4028 359.838C87.1582 360.598 87.5822 361.627 87.5822 362.698Z" fill="#2E9746"></path>
  <path d="M63.817 375.635V387.062C63.817 388.134 63.393 389.162 62.6376 389.922C61.8821 390.682 60.8566 391.113 59.785 391.119V399.826C59.785 399.978 59.7245 400.124 59.6169 400.232C59.5092 400.34 59.3632 400.4 59.211 400.4C59.0587 400.4 58.9127 400.34 58.8051 400.232C58.6975 400.124 58.637 399.978 58.637 399.826V391.119C57.5656 391.112 56.5405 390.681 55.7853 389.921C55.03 389.161 54.6057 388.134 54.605 387.062V375.635C54.6057 374.564 55.03 373.536 55.7853 372.776C56.5405 372.016 57.5656 371.586 58.637 371.578V360.722C58.637 360.57 58.6975 360.424 58.8051 360.316C58.9127 360.209 59.0587 360.148 59.211 360.148C59.3632 360.148 59.5092 360.209 59.6169 360.316C59.7245 360.424 59.785 360.57 59.785 360.722V371.578C60.8566 371.585 61.8821 372.015 62.6376 372.775C63.393 373.535 63.817 374.564 63.817 375.635Z" fill="#ECB325"></path>
  <path d="M109.693 370.383H104.663C104.384 370.395 104.105 370.351 103.843 370.253C103.582 370.154 103.343 370.004 103.141 369.811C102.939 369.617 102.778 369.385 102.668 369.128C102.559 368.871 102.502 368.595 102.502 368.315C102.502 368.036 102.559 367.759 102.668 367.502C102.778 367.245 102.939 367.013 103.141 366.82C103.343 366.626 103.582 366.476 103.843 366.378C104.105 366.279 104.384 366.235 104.663 366.247H119.23C119.509 366.235 119.788 366.279 120.05 366.378C120.311 366.476 120.55 366.626 120.752 366.82C120.954 367.013 121.115 367.245 121.225 367.502C121.334 367.759 121.391 368.036 121.391 368.315C121.391 368.595 121.334 368.871 121.225 369.128C121.115 369.385 120.954 369.617 120.752 369.811C120.55 370.004 120.311 370.154 120.05 370.253C119.788 370.351 119.509 370.395 119.23 370.383H114.183V390.909C114.183 391.503 113.947 392.072 113.527 392.492C113.107 392.912 112.538 393.148 111.944 393.148C111.351 393.148 110.781 392.912 110.362 392.492C109.942 392.072 109.706 391.503 109.706 390.909L109.693 370.383Z" fill="#33599D"></path>
  <path d="M120.444 381.955C120.444 376.566 124.044 373.075 128.983 373.075C129.238 373.073 129.491 373.122 129.727 373.218C129.963 373.315 130.177 373.457 130.357 373.637C130.538 373.817 130.68 374.032 130.777 374.268C130.873 374.504 130.922 374.756 130.919 375.011C130.917 375.524 130.712 376.015 130.35 376.378C129.987 376.74 129.496 376.945 128.983 376.947C126.477 376.947 124.618 378.615 124.618 381.955V391.03C124.618 391.584 124.398 392.115 124.007 392.506C123.616 392.897 123.085 393.117 122.531 393.117C121.978 393.117 121.447 392.897 121.056 392.506C120.664 392.115 120.444 391.584 120.444 391.03V381.955Z" fill="#33599D"></path>
  <path d="M148.295 390.831C146.556 392.365 144.313 393.203 141.995 393.186C136.533 393.186 132.395 388.744 132.395 383.13C132.395 377.516 136.53 373.074 141.995 373.074C144.32 373.053 146.569 373.906 148.295 375.464V375.2C148.295 374.647 148.515 374.116 148.906 373.724C149.298 373.333 149.829 373.113 150.382 373.113C150.936 373.113 151.466 373.333 151.858 373.724C152.249 374.116 152.469 374.647 152.469 375.2V391.02C152.469 391.574 152.249 392.104 151.858 392.496C151.466 392.887 150.936 393.107 150.382 393.107C149.829 393.107 149.298 392.887 148.906 392.496C148.515 392.104 148.295 391.574 148.295 391.02V390.831ZM148.295 383.131V382.845C148.257 381.18 147.565 379.596 146.367 378.438C145.169 377.28 143.563 376.641 141.897 376.66C140.232 376.679 138.64 377.354 137.469 378.538C136.298 379.723 135.641 381.322 135.641 382.988C135.641 384.654 136.298 386.252 137.469 387.437C138.64 388.622 140.232 389.296 141.897 389.315C143.563 389.334 145.169 388.695 146.367 387.537C147.565 386.379 148.257 384.797 148.295 383.131Z" fill="#33599D"></path>
  <path d="M172.425 390.831C170.687 392.366 168.443 393.204 166.125 393.186C160.659 393.186 156.525 388.744 156.525 383.13C156.525 377.516 160.682 373.074 166.125 373.074C168.45 373.052 170.699 373.905 172.425 375.464V367.988C172.425 367.714 172.479 367.443 172.584 367.189C172.689 366.936 172.842 366.706 173.036 366.512C173.23 366.319 173.46 366.165 173.713 366.06C173.966 365.955 174.238 365.901 174.512 365.901C174.786 365.901 175.057 365.955 175.311 366.06C175.564 366.165 175.794 366.319 175.988 366.512C176.181 366.706 176.335 366.936 176.44 367.189C176.545 367.443 176.599 367.714 176.599 367.988V391.021C176.599 391.295 176.545 391.567 176.44 391.82C176.335 392.073 176.181 392.303 175.988 392.497C175.794 392.691 175.564 392.844 175.311 392.949C175.057 393.054 174.786 393.108 174.512 393.108C174.238 393.108 173.966 393.054 173.713 392.949C173.46 392.844 173.23 392.691 173.036 392.497C172.842 392.303 172.689 392.073 172.584 391.82C172.479 391.567 172.425 391.295 172.425 391.021V390.831ZM172.425 383.131V382.846C172.387 381.181 171.695 379.597 170.497 378.439C169.299 377.281 167.693 376.642 166.027 376.661C164.361 376.68 162.77 377.355 161.599 378.539C160.427 379.724 159.771 381.323 159.771 382.989C159.771 384.655 160.427 386.253 161.599 387.438C162.77 388.623 164.361 389.297 166.027 389.316C167.693 389.335 169.299 388.696 170.497 387.538C171.695 386.38 172.387 384.797 172.425 383.131Z" fill="#33599D"></path>
  <path d="M196.549 386.656C195.758 386.656 195.335 387.114 194.734 387.602C194.219 388.154 193.595 388.592 192.902 388.89C192.209 389.187 191.461 389.338 190.707 389.331C189.781 389.332 188.868 389.107 188.049 388.674L197.413 378.523C197.808 378.116 198.027 377.569 198.022 377.002C198.012 376.698 197.94 376.399 197.809 376.125C197.678 375.85 197.491 375.606 197.261 375.407C195.375 373.838 192.984 373.008 190.532 373.069C188.08 373.13 185.734 374.079 183.929 375.74C182.124 377.401 180.983 379.661 180.718 382.099C180.454 384.538 181.083 386.99 182.49 388.999C183.231 390.053 184.174 390.949 185.264 391.635C186.896 392.646 188.78 393.175 190.7 393.16C192.07 393.195 193.431 392.931 194.689 392.388C195.947 391.845 197.072 391.035 197.986 390.014C198.346 389.645 198.562 389.159 198.595 388.644C198.599 388.377 198.549 388.112 198.447 387.865C198.345 387.617 198.194 387.394 198.003 387.207C197.811 387.021 197.584 386.875 197.334 386.78C197.085 386.684 196.818 386.641 196.551 386.652L196.549 386.656ZM184.881 383.125C184.854 382.335 184.984 381.547 185.263 380.807C185.542 380.067 185.966 379.39 186.509 378.816C187.052 378.241 187.704 377.779 188.427 377.458C189.149 377.137 189.928 376.963 190.719 376.945C191.602 376.931 192.47 377.166 193.225 377.623L185.464 385.868C185.073 385.007 184.875 384.072 184.884 383.126L184.881 383.125Z" fill="#33599D"></path>
  <path d="M199.706 375.391C199.704 375.136 199.752 374.884 199.849 374.648C199.945 374.412 200.088 374.197 200.268 374.017C200.448 373.837 200.663 373.695 200.899 373.598C201.135 373.502 201.387 373.453 201.642 373.455H203.006V370.607C203.006 370.054 203.226 369.523 203.617 369.132C204.009 368.74 204.54 368.52 205.093 368.52C205.647 368.52 206.177 368.74 206.569 369.132C206.96 369.523 207.18 370.054 207.18 370.607V373.455H211.618C211.873 373.453 212.126 373.502 212.362 373.598C212.598 373.695 212.812 373.837 212.992 374.017C213.172 374.197 213.315 374.412 213.411 374.648C213.508 374.884 213.556 375.136 213.554 375.391C213.551 375.903 213.346 376.393 212.983 376.755C212.621 377.117 212.13 377.321 211.618 377.323H207.18V384.194C207.18 387.53 209.038 389.241 211.618 389.241C212.102 389.287 212.552 389.511 212.88 389.871C213.208 390.23 213.389 390.699 213.389 391.186C213.389 391.672 213.208 392.141 212.88 392.501C212.552 392.86 212.102 393.085 211.618 393.13C206.726 393.13 203.006 389.673 203.006 384.176V377.323H201.641C201.129 377.321 200.639 377.116 200.277 376.755C199.915 376.393 199.71 375.903 199.706 375.391Z" fill="#33599D"></path>
  <path d="M215.682 383.131C215.682 381.142 216.271 379.198 217.376 377.544C218.481 375.89 220.051 374.601 221.889 373.839C223.726 373.078 225.748 372.878 227.699 373.266C229.65 373.654 231.442 374.612 232.848 376.018C234.255 377.424 235.213 379.216 235.601 381.167C235.989 383.117 235.79 385.139 235.029 386.977C234.268 388.815 232.979 390.385 231.325 391.49C229.671 392.595 227.727 393.185 225.738 393.185C224.411 393.209 223.093 392.965 221.862 392.468C220.632 391.97 219.514 391.231 218.575 390.292C217.637 389.354 216.897 388.236 216.4 387.005C215.903 385.774 215.659 384.456 215.682 383.129V383.131ZM231.582 383.131C231.515 381.989 231.115 380.892 230.432 379.974C229.748 379.057 228.811 378.36 227.736 377.969C226.66 377.579 225.494 377.511 224.381 377.776C223.268 378.04 222.257 378.625 221.472 379.458C220.688 380.29 220.164 381.334 219.967 382.461C219.769 383.588 219.905 384.748 220.359 385.798C220.813 386.848 221.564 387.742 222.521 388.37C223.477 388.998 224.596 389.332 225.74 389.331C226.534 389.317 227.316 389.144 228.042 388.823C228.768 388.502 229.422 388.039 229.966 387.461C230.51 386.884 230.933 386.203 231.21 385.459C231.488 384.716 231.613 383.924 231.58 383.131H231.582Z" fill="#33599D"></path>
  <path d="M239.851 381.955C239.851 376.566 243.451 373.075 248.39 373.075C248.645 373.074 248.897 373.122 249.132 373.219C249.368 373.316 249.582 373.458 249.761 373.639C249.941 373.819 250.083 374.033 250.18 374.269C250.276 374.504 250.324 374.757 250.322 375.011C250.32 375.52 250.118 376.008 249.76 376.37C249.402 376.732 248.917 376.939 248.408 376.947C245.902 376.947 244.043 378.615 244.043 381.955V391.03C244.043 391.584 243.823 392.115 243.432 392.506C243.04 392.897 242.51 393.117 241.956 393.117C241.403 393.117 240.872 392.897 240.48 392.506C240.089 392.115 239.869 391.584 239.869 391.03L239.851 381.955Z" fill="#33599D"></path>
  <g filter="url(#filter1_d_6421_44379)">
    <path d="M643 183.5H357C353.686 183.5 351 186.186 351 189.5V267.5C351 270.814 353.686 273.5 357 273.5H643C646.314 273.5 649 270.814 649 267.5V189.5C649 186.186 646.314 183.5 643 183.5Z" fill="white"></path>
    <path d="M643 184H357C353.962 184 351.5 186.462 351.5 189.5V267.5C351.5 270.538 353.962 273 357 273H643C646.038 273 648.5 270.538 648.5 267.5V189.5C648.5 186.462 646.038 184 643 184Z" stroke="#ECEEF0"></path>
  </g>
  <path d="M407.299 226.966C406.12 225.712 405.607 225.198 404.579 224.103C404.303 223.833 404.048 223.543 403.816 223.234C403.478 222.782 403.314 222.223 403.354 221.66C403.395 221.097 403.636 220.567 404.035 220.167C404.391 219.753 404.891 219.489 405.434 219.43C405.978 219.371 406.523 219.522 406.959 219.85C408.614 220.923 410.283 221.98 411.877 223.136C412.677 223.718 413.169 223.582 413.849 222.947C418.492 218.611 423.169 214.319 427.838 210.013C428.06 209.76 428.33 209.552 428.633 209.403C428.935 209.254 429.264 209.166 429.6 209.144C429.937 209.122 430.274 209.166 430.594 209.274C430.913 209.383 431.208 209.553 431.461 209.775C431.715 209.997 431.922 210.267 432.071 210.57C432.22 210.872 432.308 211.201 432.331 211.537C432.353 211.874 432.308 212.211 432.2 212.53C432.092 212.85 431.921 213.145 431.699 213.398C431.578 213.572 431.45 213.746 431.314 213.912C428.451 217.44 425.582 220.968 422.709 224.496C417.057 231.454 411.403 238.412 405.747 245.37C403.261 248.43 400.035 248.694 397.006 246.141C392.571 242.416 388.106 238.73 383.672 235.005C383.047 234.538 382.591 233.879 382.375 233.129C382.158 232.379 382.192 231.579 382.472 230.85C382.713 230.177 383.159 229.597 383.747 229.19C384.334 228.784 385.035 228.571 385.749 228.583C386.557 228.648 387.344 228.877 388.061 229.255C391.74 231.106 395.404 232.98 399.038 234.929C399.36 235.164 399.762 235.264 400.157 235.208C400.551 235.152 400.909 234.944 401.153 234.629C403.193 232.672 405.301 230.768 407.393 228.872C408.413 228.072 407.453 227.127 407.302 226.961L407.299 226.966Z" fill="#EA4335"></path>
  <path d="M448.062 219.381H443.038C442.764 219.385 442.492 219.334 442.238 219.231C441.985 219.128 441.754 218.975 441.56 218.782C441.366 218.588 441.213 218.357 441.11 218.104C441.007 217.85 440.956 217.578 440.96 217.304C440.957 217.032 441.009 216.762 441.113 216.511C441.216 216.259 441.37 216.031 441.564 215.841C441.758 215.65 441.989 215.501 442.242 215.402C442.495 215.302 442.766 215.256 443.038 215.264H457.543C457.814 215.259 458.084 215.308 458.336 215.408C458.587 215.508 458.817 215.658 459.01 215.848C459.204 216.038 459.357 216.264 459.462 216.514C459.567 216.764 459.621 217.033 459.621 217.304C459.622 217.577 459.569 217.848 459.465 218.1C459.36 218.352 459.207 218.582 459.014 218.775C458.821 218.968 458.592 219.121 458.339 219.225C458.087 219.329 457.816 219.383 457.543 219.382H452.519V239.817C452.507 240.4 452.267 240.955 451.85 241.362C451.433 241.77 450.874 241.999 450.291 241.999C449.708 241.999 449.148 241.77 448.731 241.362C448.315 240.955 448.075 240.4 448.062 239.817V219.381Z" fill="black"></path>
  <path d="M461.623 217.455C461.623 216.969 461.767 216.495 462.037 216.091C462.307 215.687 462.69 215.373 463.139 215.187C463.587 215.001 464.081 214.952 464.557 215.047C465.033 215.142 465.471 215.376 465.814 215.719C466.157 216.062 466.391 216.5 466.486 216.976C466.581 217.452 466.532 217.946 466.346 218.394C466.16 218.843 465.846 219.227 465.442 219.496C465.038 219.766 464.564 219.91 464.078 219.91C463.755 219.911 463.436 219.848 463.138 219.724C462.84 219.601 462.569 219.421 462.341 219.192C462.113 218.964 461.932 218.693 461.809 218.395C461.685 218.097 461.622 217.778 461.623 217.455ZM462.003 224.18C461.997 223.903 462.046 223.628 462.148 223.371C462.25 223.114 462.402 222.879 462.595 222.681C462.789 222.483 463.02 222.326 463.275 222.219C463.53 222.112 463.804 222.056 464.081 222.056C464.357 222.056 464.631 222.112 464.886 222.219C465.141 222.326 465.372 222.483 465.566 222.681C465.759 222.879 465.912 223.114 466.013 223.371C466.115 223.628 466.164 223.903 466.158 224.18V239.931C466.164 240.208 466.115 240.483 466.013 240.74C465.912 240.997 465.759 241.232 465.566 241.43C465.372 241.628 465.141 241.785 464.886 241.892C464.631 241.999 464.357 242.055 464.081 242.055C463.804 242.055 463.53 241.999 463.275 241.892C463.02 241.785 462.789 241.628 462.595 241.43C462.402 241.232 462.25 240.997 462.148 240.74C462.046 240.483 461.997 240.208 462.003 239.931V224.18Z" fill="black"></path>
  <path d="M470.198 232.081C470.175 230.76 470.418 229.448 470.913 228.223C471.408 226.998 472.144 225.885 473.079 224.951C474.013 224.017 475.125 223.281 476.35 222.786C477.575 222.291 478.887 222.048 480.208 222.071C481.565 222.037 482.914 222.293 484.164 222.82C485.415 223.348 486.539 224.136 487.461 225.131C487.817 225.529 488.028 226.034 488.061 226.566C488.063 226.829 488.011 227.089 487.908 227.33C487.804 227.571 487.653 227.789 487.462 227.97C487.272 228.15 487.046 228.289 486.799 228.379C486.553 228.469 486.29 228.507 486.028 228.491C485.689 228.474 485.357 228.388 485.052 228.239C484.747 228.089 484.475 227.879 484.253 227.622C483.732 227.077 483.104 226.645 482.409 226.352C481.713 226.06 480.966 225.914 480.211 225.922C479.423 225.939 478.647 226.112 477.926 226.432C477.206 226.751 476.556 227.211 476.015 227.784C475.474 228.357 475.052 229.031 474.774 229.769C474.495 230.506 474.366 231.291 474.394 232.079C474.366 232.867 474.495 233.652 474.774 234.389C475.052 235.127 475.474 235.801 476.015 236.374C476.556 236.947 477.206 237.407 477.926 237.726C478.647 238.046 479.423 238.219 480.211 238.236C480.959 238.24 481.699 238.092 482.387 237.799C483.075 237.507 483.696 237.077 484.211 236.536C484.437 236.267 484.714 236.045 485.026 235.883C485.337 235.72 485.678 235.621 486.028 235.591C486.296 235.579 486.563 235.623 486.813 235.719C487.063 235.814 487.291 235.961 487.482 236.148C487.674 236.336 487.824 236.561 487.925 236.809C488.026 237.057 488.075 237.323 488.068 237.591C488.033 238.1 487.821 238.581 487.468 238.951C486.558 239.97 485.438 240.778 484.184 241.32C482.93 241.863 481.574 242.126 480.208 242.091C478.887 242.114 477.575 241.871 476.35 241.376C475.125 240.881 474.013 240.145 473.079 239.211C472.144 238.277 471.408 237.164 470.913 235.939C470.418 234.714 470.175 233.402 470.198 232.081Z" fill="black"></path>
  <path d="M491.993 217.004C492.005 216.461 492.229 215.944 492.618 215.564C493.006 215.184 493.527 214.971 494.071 214.971C494.614 214.971 495.136 215.184 495.524 215.564C495.912 215.944 496.136 216.461 496.148 217.004V239.931C496.154 240.208 496.105 240.483 496.003 240.74C495.902 240.997 495.75 241.232 495.556 241.43C495.363 241.627 495.131 241.785 494.876 241.892C494.621 241.999 494.347 242.054 494.071 242.054C493.794 242.054 493.52 241.999 493.265 241.892C493.01 241.785 492.779 241.627 492.585 241.43C492.392 241.232 492.24 240.997 492.138 240.74C492.036 240.483 491.987 240.208 491.993 239.931V217.004ZM497.659 233.511C497.311 233.068 497.112 232.525 497.092 231.962C497.116 231.434 497.315 230.929 497.659 230.527L504.159 222.783C504.331 222.568 504.549 222.395 504.798 222.277C505.047 222.159 505.319 222.099 505.594 222.103C505.849 222.093 506.102 222.134 506.34 222.224C506.578 222.315 506.795 222.452 506.979 222.629C507.162 222.805 507.308 223.017 507.408 223.251C507.507 223.485 507.559 223.737 507.558 223.992C507.575 224.451 507.413 224.898 507.105 225.239L501.628 231.774L507.408 238.611C507.713 239 507.886 239.477 507.899 239.971C507.886 240.524 507.658 241.051 507.263 241.439C506.868 241.827 506.338 242.046 505.784 242.049C505.486 242.047 505.192 241.979 504.924 241.848C504.655 241.717 504.42 241.528 504.235 241.294L497.662 233.512L497.659 233.511Z" fill="black"></path>
  <path d="M520.211 217.455C520.22 216.87 520.459 216.312 520.877 215.902C521.294 215.492 521.856 215.263 522.441 215.264H532.641C532.91 215.263 533.175 215.315 533.424 215.417C533.672 215.519 533.897 215.669 534.087 215.859C534.276 216.048 534.426 216.274 534.529 216.522C534.631 216.77 534.683 217.036 534.681 217.304C534.685 217.85 534.473 218.375 534.09 218.764C533.708 219.153 533.187 219.376 532.641 219.382H524.671V226.408H532.641C532.913 226.408 533.181 226.462 533.431 226.567C533.681 226.672 533.908 226.825 534.098 227.019C534.287 227.212 534.437 227.442 534.537 227.694C534.637 227.945 534.686 228.215 534.681 228.486C534.686 228.755 534.636 229.022 534.535 229.272C534.434 229.521 534.284 229.748 534.094 229.938C533.903 230.128 533.677 230.278 533.427 230.379C533.178 230.48 532.911 230.53 532.641 230.526H524.671V239.819C524.659 240.402 524.419 240.957 524.002 241.364C523.586 241.772 523.026 242.001 522.443 242.001C521.86 242.001 521.3 241.772 520.884 241.364C520.467 240.957 520.227 240.402 520.214 239.819L520.211 217.455Z" fill="black"></path>
  <path d="M538.343 224.181C538.337 223.904 538.386 223.629 538.488 223.372C538.59 223.114 538.742 222.88 538.935 222.682C539.129 222.484 539.36 222.327 539.615 222.22C539.87 222.113 540.144 222.057 540.421 222.057C540.698 222.057 540.971 222.113 541.227 222.22C541.482 222.327 541.713 222.484 541.906 222.682C542.1 222.88 542.252 223.114 542.353 223.372C542.455 223.629 542.504 223.904 542.498 224.181V233.398C542.498 236.571 544.424 238.233 546.842 238.233C549.26 238.233 551.186 236.571 551.186 233.398V224.181C551.18 223.904 551.229 223.629 551.331 223.372C551.433 223.114 551.585 222.88 551.778 222.682C551.972 222.484 552.203 222.327 552.458 222.22C552.713 222.113 552.987 222.057 553.264 222.057C553.541 222.057 553.814 222.113 554.07 222.22C554.325 222.327 554.556 222.484 554.749 222.682C554.943 222.88 555.095 223.114 555.196 223.372C555.298 223.629 555.347 223.904 555.341 224.181V233.247C555.341 238.647 551.601 242.086 546.841 242.086C542.081 242.086 538.341 238.649 538.341 233.247L538.343 224.181Z" fill="black"></path>
  <path d="M560.139 230.864C560.139 225.464 563.879 222.064 568.639 222.064C573.399 222.064 577.139 225.464 577.139 230.864V239.93C577.145 240.207 577.096 240.482 576.994 240.739C576.893 240.996 576.741 241.231 576.547 241.429C576.354 241.627 576.122 241.784 575.867 241.891C575.612 241.998 575.338 242.054 575.062 242.054C574.785 242.054 574.511 241.998 574.256 241.891C574.001 241.784 573.77 241.627 573.576 241.429C573.383 241.231 573.231 240.996 573.129 240.739C573.027 240.482 572.978 240.207 572.984 239.93V230.713C572.984 227.578 571.058 225.913 568.64 225.913C566.222 225.913 564.296 227.575 564.296 230.713V239.93C564.302 240.207 564.253 240.482 564.151 240.739C564.05 240.996 563.898 241.231 563.704 241.429C563.511 241.627 563.279 241.784 563.024 241.891C562.769 241.998 562.495 242.054 562.219 242.054C561.942 242.054 561.668 241.998 561.413 241.891C561.158 241.784 560.927 241.627 560.733 241.429C560.54 241.231 560.388 240.996 560.286 240.739C560.184 240.482 560.135 240.207 560.141 239.93L560.139 230.864Z" fill="black"></path>
  <path d="M596.969 239.749C595.238 241.274 593.005 242.107 590.698 242.091C585.258 242.091 581.141 237.671 581.141 232.081C581.141 226.491 585.259 222.071 590.698 222.071C593.013 222.05 595.251 222.9 596.969 224.451V217.004C596.963 216.727 597.012 216.452 597.114 216.195C597.216 215.937 597.368 215.703 597.561 215.505C597.755 215.307 597.986 215.15 598.241 215.043C598.496 214.936 598.77 214.88 599.047 214.88C599.323 214.88 599.597 214.936 599.852 215.043C600.107 215.15 600.338 215.307 600.532 215.505C600.726 215.703 600.878 215.937 600.979 216.195C601.081 216.452 601.13 216.727 601.124 217.004V239.931C601.13 240.208 601.081 240.483 600.979 240.74C600.878 240.997 600.726 241.232 600.532 241.43C600.338 241.628 600.107 241.785 599.852 241.892C599.597 241.999 599.323 242.055 599.047 242.055C598.77 242.055 598.496 241.999 598.241 241.892C597.986 241.785 597.755 241.628 597.561 241.43C597.368 241.232 597.216 240.997 597.114 240.74C597.012 240.483 596.963 240.208 596.969 239.931V239.742V239.749ZM596.969 232.081V231.817C596.976 231.037 596.827 230.263 596.529 229.542C596.232 228.82 595.792 228.166 595.237 227.618C594.681 227.07 594.021 226.639 593.296 226.351C592.571 226.063 591.795 225.924 591.015 225.942C590.235 225.959 589.467 226.134 588.755 226.454C588.044 226.775 587.404 227.235 586.874 227.808C586.344 228.381 585.935 229.054 585.67 229.788C585.406 230.522 585.291 231.302 585.334 232.081C585.289 232.873 585.406 233.666 585.678 234.411C585.95 235.156 586.371 235.838 586.915 236.415C587.46 236.991 588.117 237.451 588.845 237.765C589.573 238.079 590.358 238.241 591.152 238.241C591.945 238.241 592.73 238.079 593.458 237.765C594.187 237.451 594.843 236.991 595.388 236.415C595.933 235.838 596.354 235.156 596.626 234.411C596.898 233.666 597.014 232.873 596.969 232.081Z" fill="black"></path>
  <path d="M607.055 235.632C607.339 235.622 607.621 235.686 607.873 235.819C608.125 235.951 608.338 236.147 608.49 236.387C608.77 236.949 609.193 237.427 609.717 237.772C610.241 238.117 610.848 238.317 611.474 238.351C611.75 238.36 612.025 238.315 612.283 238.217C612.541 238.12 612.777 237.971 612.978 237.782C613.178 237.592 613.339 237.364 613.45 237.112C613.562 236.859 613.622 236.587 613.627 236.311C613.627 234.762 612.192 234.158 610.416 233.553C608.036 232.722 605.354 231.702 605.354 227.811C605.368 227.029 605.539 226.258 605.857 225.543C606.174 224.828 606.632 224.183 607.202 223.648C607.773 223.113 608.445 222.697 609.178 222.426C609.912 222.155 610.693 222.033 611.474 222.069C614.685 222.069 617.631 224.033 617.631 226.413C617.629 226.662 617.576 226.908 617.478 227.136C617.379 227.364 617.236 227.571 617.056 227.743C616.877 227.916 616.665 228.05 616.433 228.14C616.201 228.229 615.953 228.271 615.704 228.264C615.46 228.278 615.217 228.222 615.003 228.102C614.789 227.983 614.613 227.806 614.496 227.591C614.157 227.085 613.71 226.661 613.187 226.347C612.665 226.034 612.08 225.84 611.474 225.778C611.2 225.766 610.925 225.81 610.668 225.907C610.411 226.004 610.176 226.153 609.979 226.344C609.781 226.535 609.624 226.764 609.517 227.017C609.411 227.271 609.357 227.543 609.359 227.818C609.359 229.367 610.946 229.858 612.872 230.5C615.172 231.218 617.783 232.426 617.783 236.2C617.723 237.816 617.027 239.343 615.845 240.448C614.663 241.552 613.092 242.143 611.475 242.093C608.113 242.093 605.167 239.902 605.167 237.56C605.164 237.309 605.21 237.06 605.303 236.827C605.396 236.595 605.535 236.383 605.711 236.204C605.886 236.025 606.095 235.882 606.326 235.784C606.557 235.687 606.805 235.635 607.056 235.634L607.055 235.632Z" fill="black"></path>
  <g filter="url(#filter2_d_6421_44379)">
    <path d="M290 12.5H100C96.6863 12.5 94 15.1863 94 18.5V86.5C94 89.8137 96.6863 92.5 100 92.5H290C293.314 92.5 296 89.8137 296 86.5V18.5C296 15.1863 293.314 12.5 290 12.5Z" fill="white"></path>
    <path d="M290 13H100C96.9624 13 94.5 15.4624 94.5 18.5V86.5C94.5 89.5376 96.9624 92 100 92H290C293.038 92 295.5 89.5376 295.5 86.5V18.5C295.5 15.4624 293.038 13 290 13Z" stroke="#ECEEF0"></path>
  </g>
  <path d="M182.661 43.445H177.561C177.283 43.4491 177.007 43.3973 176.749 43.2928C176.492 43.1883 176.258 43.0332 176.061 42.8366C175.865 42.6401 175.71 42.4061 175.605 42.1485C175.501 41.8909 175.449 41.615 175.453 41.337C175.45 41.0611 175.502 40.7873 175.608 40.5322C175.713 40.2771 175.869 40.0459 176.065 39.8526C176.262 39.6592 176.496 39.5077 176.753 39.407C177.01 39.3064 177.285 39.2588 177.561 39.267H192.28C192.555 39.262 192.828 39.3118 193.084 39.4136C193.339 39.5153 193.572 39.667 193.768 39.8597C193.964 40.0524 194.12 40.2823 194.227 40.536C194.333 40.7897 194.388 41.062 194.388 41.337C194.389 41.6142 194.335 41.8887 194.23 42.145C194.124 42.4012 193.969 42.634 193.773 42.83C193.577 43.0259 193.344 43.1812 193.088 43.2867C192.832 43.3923 192.557 43.4461 192.28 43.445H187.18V64.181C187.18 64.7808 186.942 65.356 186.517 65.7801C186.093 66.2043 185.518 66.4425 184.918 66.4425C184.319 66.4425 183.743 66.2043 183.319 65.7801C182.895 65.356 182.657 64.7808 182.657 64.181L182.661 43.445Z" fill="#33599D"></path>
  <path d="M193.47 48.313C193.47 47.7539 193.692 47.2177 194.087 46.8224C194.482 46.427 195.019 46.205 195.578 46.205C196.137 46.205 196.673 46.427 197.068 46.8224C197.464 47.2177 197.686 47.7539 197.686 48.313V57.665C197.686 60.885 199.641 62.571 202.094 62.571C204.547 62.571 206.502 60.884 206.502 57.665V48.313C206.502 47.7539 206.724 47.2177 207.119 46.8224C207.514 46.427 208.051 46.205 208.61 46.205C209.169 46.205 209.705 46.427 210.1 46.8224C210.496 47.2177 210.718 47.7539 210.718 48.313V57.513C210.718 62.994 206.923 66.482 202.094 66.482C197.265 66.482 193.47 62.994 193.47 57.513V48.313Z" fill="#33599D"></path>
  <path d="M216.701 59.922C216.989 59.9117 217.276 59.9771 217.531 60.1116C217.787 60.2462 218.003 60.4452 218.158 60.689C218.441 61.2594 218.871 61.7443 219.403 62.0945C219.935 62.4446 220.55 62.6473 221.186 62.682C221.466 62.6916 221.745 62.6455 222.007 62.5463C222.268 62.4471 222.508 62.2968 222.711 62.1042C222.915 61.9116 223.078 61.6805 223.191 61.4243C223.304 61.1681 223.365 60.892 223.371 60.612C223.371 59.04 221.914 58.427 220.113 57.812C217.698 56.969 214.977 55.934 214.977 51.986C214.991 51.1925 215.165 50.4099 215.487 49.6845C215.809 48.9591 216.273 48.3056 216.852 47.7625C217.43 47.2194 218.112 46.7978 218.856 46.5226C219.601 46.2474 220.393 46.1241 221.186 46.16C224.444 46.16 227.434 48.153 227.434 50.568C227.431 50.8204 227.378 51.0696 227.278 51.3013C227.177 51.5329 227.032 51.7422 226.85 51.917C226.668 52.0919 226.453 52.2287 226.218 52.3195C225.982 52.4103 225.731 52.4533 225.479 52.446C225.23 52.4594 224.982 52.4015 224.765 52.2794C224.548 52.1572 224.37 51.9757 224.252 51.756C223.907 51.243 223.454 50.8121 222.924 50.4941C222.394 50.1761 221.801 49.9787 221.186 49.916C220.907 49.9038 220.629 49.9484 220.368 50.0471C220.107 50.1459 219.869 50.2966 219.668 50.4903C219.468 50.6839 219.308 50.9164 219.2 51.1735C219.092 51.4307 219.038 51.7071 219.04 51.986C219.04 53.558 220.65 54.056 222.605 54.707C224.943 55.435 227.588 56.662 227.588 60.495C227.527 62.1349 226.82 63.6841 225.621 64.8043C224.422 65.9245 222.828 66.5248 221.188 66.474C217.777 66.474 214.788 64.251 214.788 61.874C214.785 61.6202 214.832 61.3682 214.927 61.1326C215.021 60.897 215.161 60.6824 215.339 60.5011C215.517 60.3197 215.729 60.1753 215.962 60.0759C216.196 59.9765 216.447 59.9242 216.701 59.922Z" fill="#33599D"></path>
  <path d="M231.646 41.03C231.646 40.4709 231.868 39.9347 232.263 39.5394C232.659 39.1441 233.195 38.922 233.754 38.922C234.313 38.922 234.849 39.1441 235.245 39.5394C235.64 39.9347 235.862 40.4709 235.862 41.03V47.853C237.248 46.7584 238.964 46.164 240.73 46.166C245.291 46.166 248.894 49.616 248.894 55.097V64.297C248.894 64.8561 248.672 65.3923 248.277 65.7876C247.881 66.1829 247.345 66.405 246.786 66.405C246.227 66.405 245.691 66.1829 245.295 65.7876C244.9 65.3923 244.678 64.8561 244.678 64.297V54.944C244.678 51.724 242.723 50.076 240.27 50.076C237.817 50.076 235.866 51.724 235.866 54.944V64.296C235.866 64.8551 235.644 65.3913 235.249 65.7866C234.853 66.1819 234.317 66.404 233.758 66.404C233.199 66.404 232.663 66.1819 232.267 65.7866C231.872 65.3913 231.65 64.8551 231.65 64.296L231.646 41.03Z" fill="#33599D"></path>
  <path d="M253.379 41.49C253.379 40.9974 253.525 40.5157 253.799 40.1061C254.072 39.6965 254.461 39.3772 254.917 39.1886C255.372 39.0001 255.873 38.9508 256.356 39.0469C256.839 39.143 257.283 39.3802 257.631 39.7286C257.98 40.077 258.217 40.5208 258.313 41.0041C258.409 41.4873 258.36 41.9881 258.171 42.4433C257.983 42.8985 257.663 43.2875 257.254 43.5612C256.844 43.8349 256.363 43.981 255.87 43.981C255.543 43.9817 255.218 43.9177 254.916 43.7928C254.613 43.6678 254.338 43.4843 254.107 43.2529C253.876 43.0215 253.692 42.7466 253.567 42.4441C253.442 42.1415 253.378 41.8173 253.379 41.49ZM253.762 48.313C253.762 47.754 253.984 47.2178 254.379 46.8224C254.775 46.4271 255.311 46.205 255.87 46.205C256.429 46.205 256.965 46.4271 257.361 46.8224C257.756 47.2178 257.978 47.754 257.978 48.313V64.297C257.978 64.8561 257.756 65.3923 257.361 65.7876C256.965 66.1829 256.429 66.405 255.87 66.405C255.311 66.405 254.775 66.1829 254.379 65.7876C253.984 65.3923 253.762 64.8561 253.762 64.297V48.313Z" fill="#33599D"></path>
  <path d="M262.885 41.03C262.885 40.4709 263.107 39.9347 263.502 39.5394C263.897 39.1441 264.434 38.922 264.993 38.922C265.552 38.922 266.088 39.1441 266.483 39.5394C266.879 39.9347 267.101 40.4709 267.101 41.03V64.296C267.101 64.8551 266.879 65.3913 266.483 65.7866C266.088 66.1819 265.552 66.404 264.993 66.404C264.434 66.404 263.897 66.1819 263.502 65.7866C263.107 65.3913 262.885 64.8551 262.885 64.296V41.03Z" fill="#33599D"></path>
  <path d="M163.726 37.6781L162.572 37.3881C159.625 36.6482 156.73 35.7162 153.905 34.5981C151.072 33.474 148.316 32.1641 145.655 30.6771L144.913 30.2591L143.959 29.7271L143.005 30.2591L142.264 30.6761C139.603 32.1647 136.847 33.4752 134.013 34.5991C131.188 35.7172 128.293 36.6492 125.346 37.3891L124.192 37.6791L122.713 38.0491V39.5781V40.7671C122.729 47.6228 124.536 54.3554 127.955 60.2978C131.374 66.2401 136.287 71.1859 142.206 74.6451L142.973 75.092L143.961 75.667L144.949 75.092L145.713 74.6451C151.59 71.2044 156.477 66.301 159.897 60.4121C163.357 54.4418 165.187 47.6673 165.204 40.7671V39.5781V38.0491L163.722 37.6781H163.726ZM163.249 40.7611C163.235 47.2769 161.519 53.6762 158.27 59.3243C155.021 64.9725 150.353 69.6734 144.727 72.961L143.96 73.4081L143.193 72.961C137.567 69.6734 132.898 64.9725 129.65 59.3243C126.401 53.6762 124.684 47.2769 124.671 40.7611V39.5731L125.821 39.2831C128.851 38.5255 131.828 37.5667 134.731 36.4131C137.643 35.2559 140.477 33.9087 143.213 32.3801L143.954 31.9631L144.695 32.3801C147.431 33.9095 150.265 35.2568 153.179 36.4131C156.084 37.5642 159.062 38.5229 162.093 39.2831L163.247 39.5731V40.7611H163.249Z" fill="#F4BC18"></path>
  <path d="M143.96 71.647C139.015 68.7575 134.835 64.7254 131.769 59.8883C128.703 55.0512 126.84 49.5499 126.337 43.845C126.839 49.5513 128.7 55.0544 131.767 59.893C134.833 64.7317 139.014 68.765 143.96 71.655C149.096 68.653 153.405 64.4201 156.498 59.3378C159.591 54.2555 161.371 48.4835 161.677 42.542C161.368 48.4812 159.588 54.2505 156.495 59.3303C153.402 64.4101 149.094 68.641 143.96 71.642V71.647Z" fill="white"></path>
  <path d="M143.961 33.718V71.66C139.015 68.77 134.834 64.7367 131.767 59.898C128.701 55.0594 126.839 49.5564 126.338 43.85C126.227 42.611 126.197 41.567 126.197 40.762C129.292 39.9911 132.332 39.0149 135.297 37.84C138.272 36.6599 141.166 35.2842 143.96 33.722L143.961 33.718Z" fill="#4169B1"></path>
  <path d="M161.729 40.771C161.729 41.222 161.716 41.751 161.691 42.347C161.691 42.415 161.682 42.479 161.678 42.547C161.372 48.4886 159.592 54.2606 156.499 59.3428C153.406 64.4251 149.097 68.658 143.961 71.66V33.718C144.428 33.978 144.905 34.2377 145.392 34.497C145.558 34.582 145.72 34.672 145.886 34.757C145.971 34.8 146.056 34.846 146.142 34.889C147.833 35.762 149.69 36.631 151.704 37.466C152.007 37.5894 152.313 37.713 152.624 37.837C153.242 38.08 153.851 38.314 154.455 38.531C156.835 39.4 159.259 40.145 161.716 40.763H161.729V40.771Z" fill="#35B34A"></path>
  <path d="M143.96 33.718V48.449C143.96 48.449 126.656 41.077 126.192 40.758C129.287 39.9871 132.327 39.0109 135.292 37.836C138.268 36.655 141.164 35.2794 143.96 33.718Z" fill="#EC2224"></path>
  <path d="M143.96 33.718V48.449C143.96 48.449 161.26 41.077 161.728 40.758C158.633 39.9871 155.593 39.0109 152.628 37.836C149.651 36.655 146.756 35.2794 143.96 33.718Z" fill="#EC2224"></path>
  <g filter="url(#filter3_d_6421_44379)">
    <path d="M607 463.502H394C390.686 463.502 388 466.188 388 469.502V537.502C388 540.816 390.686 543.502 394 543.502H607C610.314 543.502 613 540.816 613 537.502V469.502C613 466.188 610.314 463.502 607 463.502Z" fill="white"></path>
    <path d="M607 464.002H394C390.962 464.002 388.5 466.464 388.5 469.502V537.502C388.5 540.54 390.962 543.002 394 543.002H607C610.038 543.002 612.5 540.54 612.5 537.502V469.502C612.5 466.464 610.038 464.002 607 464.002Z" stroke="#ECEEF0"></path>
  </g>
  <path d="M461.908 515.502C461.417 515.502 460.991 515.321 460.628 514.958C460.287 514.595 460.116 514.169 460.116 513.678V493.966C460.116 493.475 460.287 493.049 460.628 492.686C460.991 492.323 461.417 492.142 461.908 492.142H472.468C472.959 492.142 473.385 492.323 473.748 492.686C474.111 493.049 474.292 493.475 474.292 493.966C474.292 494.457 474.111 494.883 473.748 495.246C473.385 495.587 472.959 495.758 472.468 495.758H464.852C464.681 495.758 464.596 495.854 464.596 496.046V501.646C464.596 501.817 464.681 501.902 464.852 501.902H471.924C472.393 501.902 472.799 502.073 473.14 502.414C473.481 502.734 473.652 503.139 473.652 503.63C473.652 504.121 473.481 504.537 473.14 504.878C472.799 505.198 472.393 505.358 471.924 505.358H464.852C464.681 505.358 464.596 505.443 464.596 505.614V513.678C464.596 514.169 464.415 514.595 464.052 514.958C463.689 515.321 463.263 515.502 462.772 515.502H461.908ZM481.33 515.502C480.839 515.502 480.413 515.321 480.05 514.958C479.687 514.595 479.506 514.169 479.506 513.678V500.686C479.506 500.195 479.687 499.769 480.05 499.406C480.413 499.043 480.839 498.862 481.33 498.862H482.162C482.653 498.862 483.079 499.043 483.442 499.406C483.805 499.769 483.986 500.195 483.986 500.686V513.678C483.986 514.169 483.805 514.595 483.442 514.958C483.079 515.321 482.653 515.502 482.162 515.502H481.33ZM481.33 495.342C480.839 495.342 480.413 495.161 480.05 494.798C479.687 494.435 479.506 494.009 479.506 493.518V493.326C479.506 492.835 479.687 492.409 480.05 492.046C480.413 491.683 480.839 491.502 481.33 491.502H482.162C482.653 491.502 483.079 491.683 483.442 492.046C483.805 492.409 483.986 492.835 483.986 493.326V493.518C483.986 494.009 483.805 494.435 483.442 494.798C483.079 495.161 482.653 495.342 482.162 495.342H481.33ZM491.182 515.502C490.692 515.502 490.265 515.321 489.902 514.958C489.54 514.595 489.358 514.169 489.358 513.678V500.686C489.358 500.195 489.54 499.769 489.902 499.406C490.265 499.043 490.692 498.862 491.182 498.862H491.598C492.11 498.862 492.537 499.043 492.878 499.406C493.241 499.747 493.433 500.174 493.454 500.686V500.91C493.454 500.931 493.465 500.942 493.486 500.942C493.508 500.942 493.529 500.931 493.55 500.91C495.001 499.331 496.697 498.542 498.638 498.542C500.58 498.542 501.988 499.097 502.862 500.206C503.758 501.294 504.206 503.118 504.206 505.678V513.678C504.206 514.169 504.025 514.595 503.662 514.958C503.3 515.321 502.873 515.502 502.382 515.502H501.838C501.348 515.502 500.921 515.321 500.558 514.958C500.217 514.595 500.046 514.169 500.046 513.678V505.998C500.046 504.398 499.833 503.31 499.406 502.734C499.001 502.137 498.265 501.838 497.198 501.838C496.324 501.838 495.513 502.211 494.766 502.958C494.02 503.705 493.646 504.505 493.646 505.358V513.678C493.646 514.169 493.465 514.595 493.102 514.958C492.74 515.321 492.313 515.502 491.822 515.502H491.182ZM515.396 501.742C512.943 501.742 511.716 503.555 511.716 507.182C511.716 508.995 512.047 510.361 512.708 511.278C513.369 512.174 514.265 512.622 515.396 512.622C516.399 512.622 517.263 512.291 517.988 511.63C518.713 510.969 519.076 510.211 519.076 509.358V505.006C519.076 504.153 518.713 503.395 517.988 502.734C517.263 502.073 516.399 501.742 515.396 501.742ZM514.116 515.822C512.217 515.822 510.639 515.054 509.38 513.518C508.121 511.961 507.492 509.849 507.492 507.182C507.492 504.43 508.089 502.307 509.284 500.814C510.5 499.299 512.111 498.542 514.116 498.542C515.929 498.542 517.529 499.203 518.916 500.526C518.937 500.547 518.959 500.558 518.98 500.558C519.001 500.558 519.012 500.547 519.012 500.526V493.326C519.012 492.835 519.193 492.409 519.556 492.046C519.919 491.683 520.345 491.502 520.836 491.502H521.476C521.967 491.502 522.393 491.683 522.756 492.046C523.119 492.409 523.3 492.835 523.3 493.326V513.678C523.3 514.169 523.119 514.595 522.756 514.958C522.393 515.321 521.967 515.502 521.476 515.502H521.124C520.612 515.502 520.175 515.331 519.812 514.99C519.471 514.627 519.289 514.19 519.268 513.678L519.236 513.454C519.236 513.433 519.225 513.422 519.204 513.422C519.183 513.422 519.161 513.433 519.14 513.454C517.732 515.033 516.057 515.822 514.116 515.822ZM534.674 501.518C533.586 501.518 532.743 501.827 532.146 502.446C531.57 503.043 531.207 504.014 531.058 505.358C531.058 505.529 531.143 505.614 531.314 505.614H537.586C537.756 505.614 537.842 505.529 537.842 505.358C537.756 502.798 536.7 501.518 534.674 501.518ZM535.474 515.822C532.679 515.822 530.524 515.097 529.01 513.646C527.516 512.174 526.77 510.019 526.77 507.182C526.77 504.366 527.442 502.222 528.786 500.75C530.13 499.278 532.071 498.542 534.61 498.542C539.346 498.542 541.778 501.23 541.906 506.606C541.927 507.118 541.746 507.545 541.362 507.886C540.978 508.227 540.53 508.398 540.018 508.398H531.282C531.09 508.398 531.015 508.494 531.058 508.686C531.207 510.115 531.676 511.161 532.466 511.822C533.276 512.462 534.45 512.782 535.986 512.782C536.946 512.782 538.012 512.622 539.186 512.302C539.57 512.195 539.922 512.259 540.242 512.494C540.583 512.729 540.754 513.049 540.754 513.454C540.754 513.945 540.604 514.382 540.306 514.766C540.028 515.129 539.655 515.353 539.186 515.438C537.991 515.694 536.754 515.822 535.474 515.822ZM547.15 515.502C546.66 515.502 546.233 515.321 545.87 514.958C545.529 514.595 545.358 514.169 545.358 513.678V500.686C545.358 500.195 545.529 499.769 545.87 499.406C546.233 499.043 546.66 498.862 547.15 498.862H547.598C548.089 498.862 548.505 499.033 548.846 499.374C549.209 499.715 549.401 500.131 549.422 500.622V500.846C549.422 500.867 549.433 500.878 549.454 500.878C549.497 500.878 549.518 500.867 549.518 500.846C550.777 499.31 552.196 498.542 553.774 498.542C554.734 498.542 555.502 498.723 556.078 499.086C556.676 499.449 557.198 500.089 557.646 501.006C557.646 501.027 557.668 501.038 557.71 501.038C557.732 501.038 557.753 501.027 557.774 501.006C559.118 499.363 560.633 498.542 562.318 498.542C564.089 498.542 565.358 499.022 566.126 499.982C566.916 500.942 567.31 502.595 567.31 504.942V513.678C567.31 514.169 567.129 514.595 566.766 514.958C566.425 515.321 566.009 515.502 565.518 515.502H564.974C564.484 515.502 564.057 515.321 563.694 514.958C563.332 514.595 563.15 514.169 563.15 513.678V505.582C563.15 504.025 563.001 503.001 562.702 502.51C562.404 502.019 561.828 501.774 560.974 501.774C560.42 501.774 559.865 502.03 559.31 502.542C558.756 503.054 558.478 503.566 558.478 504.078V513.678C558.478 514.169 558.297 514.595 557.934 514.958C557.572 515.321 557.145 515.502 556.654 515.502H556.11C555.62 515.502 555.193 515.321 554.83 514.958C554.489 514.595 554.318 514.169 554.318 513.678V505.582C554.318 504.046 554.158 503.033 553.838 502.542C553.54 502.03 552.964 501.774 552.11 501.774C551.556 501.774 551.001 502.03 550.446 502.542C549.892 503.054 549.614 503.566 549.614 504.078V513.678C549.614 514.169 549.433 514.595 549.07 514.958C548.708 515.321 548.281 515.502 547.79 515.502H547.15ZM575.24 515.246L569.928 500.558C569.8 500.131 569.853 499.747 570.088 499.406C570.323 499.043 570.664 498.862 571.112 498.862H572.072C572.605 498.862 573.096 499.033 573.544 499.374C573.992 499.694 574.28 500.11 574.408 500.622L577.384 511.086C577.384 511.107 577.395 511.118 577.416 511.118C577.437 511.118 577.448 511.107 577.448 511.086L580.872 500.59C581.043 500.078 581.352 499.662 581.8 499.342C582.248 499.022 582.739 498.862 583.272 498.862H584.04C584.488 498.862 584.829 499.043 585.064 499.406C585.32 499.769 585.363 500.153 585.192 500.558L577.384 520.846C577.192 521.358 576.872 521.763 576.424 522.062C575.976 522.382 575.475 522.542 574.92 522.542H574.152C573.725 522.542 573.384 522.361 573.128 521.998C572.893 521.657 572.861 521.283 573.032 520.878L575.24 515.758C575.283 515.673 575.304 515.587 575.304 515.502C575.304 515.417 575.283 515.331 575.24 515.246Z" fill="#33599D"></path>
  <path d="M432.317 490.955C432.317 490.955 433.378 490.428 433.893 490.146C437.819 488.068 441.741 485.985 445.66 483.899C445.873 483.734 446.123 483.616 446.389 483.555C446.655 483.494 446.932 483.49 447.2 483.545C447.488 483.618 447.747 483.773 447.943 483.991C448.139 484.208 448.263 484.478 448.299 484.764C448.351 485.07 448.3 485.383 448.153 485.658C448.006 485.932 447.772 486.153 447.484 486.287C446.124 487.018 444.759 487.731 443.399 488.454C439.38 490.584 435.361 492.695 431.359 494.854C431.009 495.074 430.602 495.192 430.186 495.195C429.769 495.197 429.36 495.084 429.008 494.868C423.733 492.036 418.437 489.244 413.153 486.443C412.248 485.964 411.878 485.376 412.048 484.667C412.102 484.428 412.217 484.206 412.381 484.02C412.546 483.834 412.755 483.69 412.991 483.602C413.227 483.513 413.481 483.483 413.732 483.513C413.982 483.544 414.221 483.634 414.427 483.775C416.456 484.842 418.48 485.923 420.507 486.995C422.654 488.129 424.805 489.266 426.958 490.408C426.977 490.38 430.196 491.926 430.196 491.926L432.32 490.955H432.317Z" fill="url(#paint0_linear_6421_44379)"></path>
  <path d="M435.602 497.579C437.569 495.679 439.489 493.821 441.414 491.958C441.446 492.073 441.467 492.192 441.475 492.312V497.079C441.475 497.379 441.443 497.585 441.044 497.579C439.243 497.571 437.436 497.579 435.602 497.579Z" fill="url(#paint1_linear_6421_44379)"></path>
  <path d="M424.785 497.579C422.818 495.679 420.898 493.821 418.973 491.958C418.941 492.073 418.92 492.192 418.912 492.312V497.079C418.912 497.379 418.945 497.585 419.343 497.579C421.149 497.571 422.951 497.579 424.785 497.579Z" fill="url(#paint2_linear_6421_44379)"></path>
  <path d="M430.084 502.215L428.633 499.68C428.624 499.663 428.619 499.643 428.619 499.623C428.619 499.603 428.624 499.583 428.633 499.565L430.084 497.03C430.094 497.012 430.11 496.996 430.129 496.985C430.147 496.974 430.169 496.968 430.191 496.968C430.213 496.968 430.234 496.974 430.253 496.985C430.272 496.996 430.287 497.012 430.297 497.03L431.748 499.565C431.758 499.583 431.762 499.603 431.762 499.623C431.762 499.643 431.758 499.663 431.748 499.68L430.297 502.215C430.287 502.234 430.272 502.25 430.253 502.261C430.234 502.272 430.213 502.278 430.191 502.278C430.169 502.278 430.147 502.272 430.129 502.261C430.11 502.25 430.094 502.234 430.084 502.215Z" fill="url(#paint3_linear_6421_44379)"></path>
  <path d="M429.999 492.201L423.508 485.844C423.472 485.809 423.447 485.765 423.438 485.717C423.428 485.668 423.434 485.618 423.453 485.573C423.473 485.527 423.506 485.489 423.549 485.462C423.591 485.435 423.641 485.421 423.692 485.421H436.693C436.744 485.422 436.794 485.436 436.836 485.464C436.878 485.492 436.911 485.531 436.931 485.576C436.951 485.622 436.956 485.672 436.947 485.721C436.937 485.769 436.913 485.814 436.877 485.849L430.369 492.206C430.321 492.253 430.255 492.279 430.187 492.279C430.119 492.279 430.053 492.253 430.004 492.206L429.999 492.201Z" fill="url(#paint4_linear_6421_44379)"></path>
  <path d="M437.175 518.485L431.97 523.545C431.931 523.583 431.904 523.632 431.893 523.685C431.882 523.738 431.888 523.793 431.909 523.843C431.93 523.892 431.967 523.935 432.013 523.965C432.059 523.995 432.114 524.011 432.169 524.01H442.593C442.649 524.011 442.703 523.995 442.75 523.965C442.796 523.935 442.832 523.892 442.853 523.843C442.875 523.793 442.88 523.738 442.869 523.685C442.858 523.632 442.832 523.583 442.792 523.545L437.569 518.485C437.516 518.435 437.444 518.406 437.37 518.406C437.295 518.406 437.224 518.435 437.171 518.485H437.175Z" fill="url(#paint5_linear_6421_44379)"></path>
  <path d="M422.661 518.614L417.595 523.541C417.555 523.579 417.528 523.628 417.517 523.681C417.506 523.734 417.512 523.789 417.533 523.839C417.554 523.888 417.591 523.931 417.637 523.961C417.683 523.991 417.738 524.007 417.793 524.006H427.943C427.999 524.007 428.053 523.991 428.1 523.961C428.146 523.931 428.182 523.888 428.203 523.839C428.225 523.789 428.23 523.734 428.219 523.681C428.208 523.628 428.181 523.579 428.142 523.541L423.059 518.614C423.006 518.564 422.934 518.535 422.86 518.535C422.786 518.535 422.714 518.564 422.661 518.614Z" fill="url(#paint6_linear_6421_44379)"></path>
  <path d="M429.818 522.925L410.807 504.442C410.74 504.377 410.694 504.293 410.675 504.202C410.657 504.112 410.666 504.018 410.703 503.932C410.739 503.846 410.801 503.773 410.88 503.722C410.959 503.67 411.053 503.643 411.148 503.642H449.239C449.334 503.643 449.427 503.67 449.507 503.722C449.586 503.773 449.648 503.846 449.684 503.932C449.721 504.018 449.73 504.112 449.712 504.202C449.693 504.293 449.647 504.377 449.58 504.442L430.501 522.925C430.457 522.969 430.404 523.004 430.345 523.028C430.286 523.052 430.223 523.064 430.16 523.064C430.096 523.064 430.033 523.052 429.975 523.028C429.916 523.004 429.863 522.969 429.818 522.925Z" fill="url(#paint7_linear_6421_44379)"></path>
  <defs>
    <filter id="filter0_d_6421_44379" x="0" y="319.502" width="293" height="127" filterUnits="userSpaceOnUse" color-interpolation-filters="sRGB">
      <feFlood flood-opacity="0" result="BackgroundImageFix"></feFlood>
      <feColorMatrix in="SourceAlpha" type="matrix" values="0 0 0 0 0 0 0 0 0 0 0 0 0 0 0 0 0 0 127 0" result="hardAlpha"></feColorMatrix>
      <feOffset dy="4"></feOffset>
      <feGaussianBlur stdDeviation="8"></feGaussianBlur>
      <feColorMatrix type="matrix" values="0 0 0 0 0.176471 0 0 0 0 0.192157 0 0 0 0 0.223529 0 0 0 0.161 0"></feColorMatrix>
      <feBlend mode="normal" in2="BackgroundImageFix" result="effect1_dropShadow_6421_44379"></feBlend>
      <feBlend mode="normal" in="SourceGraphic" in2="effect1_dropShadow_6421_44379" result="shape"></feBlend>
    </filter>
    <filter id="filter1_d_6421_44379" x="335" y="171.5" width="330" height="122" filterUnits="userSpaceOnUse" color-interpolation-filters="sRGB">
      <feFlood flood-opacity="0" result="BackgroundImageFix"></feFlood>
      <feColorMatrix in="SourceAlpha" type="matrix" values="0 0 0 0 0 0 0 0 0 0 0 0 0 0 0 0 0 0 127 0" result="hardAlpha"></feColorMatrix>
      <feOffset dy="4"></feOffset>
      <feGaussianBlur stdDeviation="8"></feGaussianBlur>
      <feColorMatrix type="matrix" values="0 0 0 0 0.176471 0 0 0 0 0.192157 0 0 0 0 0.223529 0 0 0 0.161 0"></feColorMatrix>
      <feBlend mode="normal" in2="BackgroundImageFix" result="effect1_dropShadow_6421_44379"></feBlend>
      <feBlend mode="normal" in="SourceGraphic" in2="effect1_dropShadow_6421_44379" result="shape"></feBlend>
    </filter>
    <filter id="filter2_d_6421_44379" x="78" y="0.5" width="234" height="112" filterUnits="userSpaceOnUse" color-interpolation-filters="sRGB">
      <feFlood flood-opacity="0" result="BackgroundImageFix"></feFlood>
      <feColorMatrix in="SourceAlpha" type="matrix" values="0 0 0 0 0 0 0 0 0 0 0 0 0 0 0 0 0 0 127 0" result="hardAlpha"></feColorMatrix>
      <feOffset dy="4"></feOffset>
      <feGaussianBlur stdDeviation="8"></feGaussianBlur>
      <feColorMatrix type="matrix" values="0 0 0 0 0.176471 0 0 0 0 0.192157 0 0 0 0 0.223529 0 0 0 0.161 0"></feColorMatrix>
      <feBlend mode="normal" in2="BackgroundImageFix" result="effect1_dropShadow_6421_44379"></feBlend>
      <feBlend mode="normal" in="SourceGraphic" in2="effect1_dropShadow_6421_44379" result="shape"></feBlend>
    </filter>
    <filter id="filter3_d_6421_44379" x="372" y="451.502" width="257" height="112" filterUnits="userSpaceOnUse" color-interpolation-filters="sRGB">
      <feFlood flood-opacity="0" result="BackgroundImageFix"></feFlood>
      <feColorMatrix in="SourceAlpha" type="matrix" values="0 0 0 0 0 0 0 0 0 0 0 0 0 0 0 0 0 0 127 0" result="hardAlpha"></feColorMatrix>
      <feOffset dy="4"></feOffset>
      <feGaussianBlur stdDeviation="8"></feGaussianBlur>
      <feColorMatrix type="matrix" values="0 0 0 0 0.176471 0 0 0 0 0.192157 0 0 0 0 0.223529 0 0 0 0.161 0"></feColorMatrix>
      <feBlend mode="normal" in2="BackgroundImageFix" result="effect1_dropShadow_6421_44379"></feBlend>
      <feBlend mode="normal" in="SourceGraphic" in2="effect1_dropShadow_6421_44379" result="shape"></feBlend>
    </filter>
    <linearGradient id="paint0_linear_6421_44379" x1="404.31" y1="478.088" x2="442.876" y2="600.826" gradientUnits="userSpaceOnUse">
      <stop stop-color="#0060BF"></stop>
      <stop offset="1" stop-color="#191970"></stop>
    </linearGradient>
    <linearGradient id="paint1_linear_6421_44379" x1="402.617" y1="482.919" x2="609.94" y2="557.645" gradientUnits="userSpaceOnUse">
      <stop stop-color="#0060BF"></stop>
      <stop offset="1" stop-color="#191970"></stop>
    </linearGradient>
    <linearGradient id="paint2_linear_6421_44379" x1="400.598" y1="488.669" x2="607.922" y2="563.395" gradientUnits="userSpaceOnUse">
      <stop stop-color="#0060BF"></stop>
      <stop offset="1" stop-color="#191970"></stop>
    </linearGradient>
    <linearGradient id="paint3_linear_6421_44379" x1="400.225" y1="489.715" x2="614.737" y2="514.558" gradientUnits="userSpaceOnUse">
      <stop stop-color="#0060BF"></stop>
      <stop offset="1" stop-color="#191970"></stop>
    </linearGradient>
    <linearGradient id="paint4_linear_6421_44379" x1="403.953" y1="479.106" x2="516.516" y2="623.644" gradientUnits="userSpaceOnUse">
      <stop stop-color="#0060BF"></stop>
      <stop offset="1" stop-color="#191970"></stop>
    </linearGradient>
    <linearGradient id="paint5_linear_6421_44379" x1="393.916" y1="507.708" x2="507.656" y2="652.16" gradientUnits="userSpaceOnUse">
      <stop stop-color="#0060BF"></stop>
      <stop offset="1" stop-color="#191970"></stop>
    </linearGradient>
    <linearGradient id="paint6_linear_6421_44379" x1="392.4" y1="512.041" x2="506.333" y2="656.448" gradientUnits="userSpaceOnUse">
      <stop stop-color="#0060BF"></stop>
      <stop offset="1" stop-color="#191970"></stop>
    </linearGradient>
    <linearGradient id="paint7_linear_6421_44379" x1="396.919" y1="499.214" x2="505.233" y2="643.946" gradientUnits="userSpaceOnUse">
      <stop stop-color="#0060BF"></stop>
      <stop offset="1" stop-color="#191970"></stop>
    </linearGradient>
  </defs>
</svg>
